<?xml version="1.0" encoding="UTF-8" standalone="no"?>
<!DOCTYPE svg PUBLIC "-//W3C//DTD SVG 1.1//EN" "http://www.w3.org/Graphics/SVG/1.1/DTD/svg11.dtd">
<svg width="100%" height="100%" viewBox="0 0 2541 1943" version="1.1" xmlns="http://www.w3.org/2000/svg" xmlns:xlink="http://www.w3.org/1999/xlink" xml:space="preserve" xmlns:serif="http://www.serif.com/" style="fill-rule:evenodd;clip-rule:evenodd;stroke-linejoin:round;stroke-miterlimit:2;">
    <g transform="matrix(1,0,0,1,-2798.33,-344.535)">
        <g transform="matrix(4.16667,0,0,4.16667,0,0)">
            <path d="M730.9,392.7C730.9,392.7 740.6,401.2 738.9,410.4C737.2,419.6 747.6,434.7 747.6,434.7L752.9,448.7C752.9,448.7 762,458.2 776.8,456.3C776.8,456.3 781.4,456.3 786.3,453.6C791.2,450.9 808.1,443.2 808.1,443.2C808.1,443.2 821.3,432.8 817.9,421.7C814.5,410.5 799.2,406.5 799.2,406.5L774.7,402.5L743.2,387.7L730.9,392.7Z" style="fill:rgb(160,117,125);fill-rule:nonzero;"/>
        </g>
        <g transform="matrix(4.16667,0,0,4.16667,0,0)">
            <path d="M863.8,431.9C863.8,431.9 880.7,420.9 899.5,427.8C918.3,434.7 941.5,461.6 942.2,463.1C942.8,464.6 941.6,477.9 942.2,478.5C942.8,479.1 913.7,499.6 913.7,499.6C913.7,499.6 903.1,504.5 894.3,499.6C885.4,494.7 878.2,486.7 877.6,485C877,483.3 857.1,443.6 856.7,443C856.1,442.4 863.8,431.9 863.8,431.9Z" style="fill:rgb(160,117,125);fill-rule:nonzero;"/>
        </g>
        <g transform="matrix(4.16667,0,0,4.16667,0,0)">
            <path d="M724.5,398C724.5,398 737.2,392.8 741.4,395.8C745.6,398.8 754.9,412.1 756.9,412.6C758.9,413.2 771.3,417.7 771.3,417.7C771.3,417.7 780.3,416.9 782,415.7C783.7,414.6 784.8,413.4 784.8,413.4L822.5,425.8C822.5,425.8 832.6,439.3 837.7,440.2C842.8,441 858.3,440.2 858.3,440.2C858.3,440.2 869,431.5 872.9,431.5C876.8,431.5 890.4,448.1 893.5,448.7C896.6,449.3 911.8,456 915.5,457.7C919.2,459.4 929.3,462.2 932.7,460C936.1,457.7 965.7,445.1 967.9,442C970.2,438.9 970.7,432.1 970.7,432.1C970.7,432.1 987,429 992.4,423.9C997.8,418.8 996.6,408.1 994.1,404.7C994.1,404.7 995.5,379.4 988.2,371.2C980.9,363 961.2,358.5 934.7,344.2C908.2,329.8 858.9,290.7 857.8,284.5C856.7,278.3 854.4,273.5 850.8,270.1C847.1,266.7 830.8,249.8 830.8,249.8L826,247.5L820.9,247.5C820.9,247.5 814.4,237.1 811.9,237.4C809.4,237.7 805.4,241.9 805.4,241.9C805.4,241.9 788.2,231.5 773,237.4C757.8,243.3 737.8,254 737.8,254C737.8,254 720.6,246.4 711.9,262.2C703.2,278 698.9,327.3 699.5,339.1C700.1,350.9 704,356 704,356C704,356 703.4,362.2 704.3,367.3C705.1,372.4 706.6,376.6 706.6,376.6L715.3,381.1L724.5,398Z" style="fill-rule:nonzero;"/>
        </g>
        <g transform="matrix(4.16667,0,0,4.16667,0,0)">
            <path d="M992.3,423.9C997.7,418.8 996.5,408.1 994,404.7C981.3,421.6 942.7,423.9 872,417.1C801.3,410.3 779.6,394.6 762.4,383.3C745.2,372 703.8,356.8 703.8,356.8C703.7,358.6 703.5,363.3 704.1,367.3C704.5,370 705.2,372.4 705.6,374.2C705.6,374.2 732.8,387.9 735.6,387.9C738.4,387.9 754.8,387.6 755,386.8C755.3,386 762.9,403.4 820.9,422.9C835.6,427.8 852.5,430.9 869.5,432.6C870.8,432 871.9,431.6 872.7,431.6C873.5,431.6 874.6,432.2 875.9,433.2C923.7,437.3 970.4,432.2 970.4,432.2C970.4,432.2 981.5,428.4 990.6,425.2C991.4,424.7 991.9,424.3 992.3,423.9Z" style="fill:rgb(58,173,173);fill-rule:nonzero;"/>
        </g>
        <g transform="matrix(4.16667,0,0,4.16667,0,0)">
            <path d="M857,281.6C855.7,276.8 853.7,273 850.6,270.2C846.9,266.8 830.6,249.9 830.6,249.9L829.5,249.4C829.5,249.4 788.1,237.9 744.4,293.3C744.4,293.3 745.2,330.5 749.2,331.6C753.1,332.7 790.9,297.8 811.7,284.8C830.4,273.3 849.2,274.8 857,281.6Z" style="fill-rule:nonzero;"/>
        </g>
        <g transform="matrix(4.16667,0,0,4.16667,0,0)">
            <path d="M827.6,326.6L821.9,323.6C821.9,323.6 833.4,289 857.7,284.5C857.7,284.5 862.8,286 863.9,292C863.9,292.1 849.6,289.2 827.6,326.6Z" style="fill:white;fill-rule:nonzero;"/>
        </g>
        <g transform="matrix(4.16667,0,0,4.16667,0,0)">
            <path d="M847.7,346.7C847.7,346.7 856.8,311.2 874.1,301.2C874.1,301.2 879.9,301.5 881.9,307.6C881.9,307.6 859.9,335 853.7,350L847.7,346.7Z" style="fill:white;fill-rule:nonzero;"/>
        </g>
        <g transform="matrix(4.16667,0,0,4.16667,0,0)">
            <path d="M883.6,360.9C883.6,360.9 883,348.6 906,340.4C929,332.2 931.3,337 931.3,337C931.3,337 935.9,340.3 935.7,344.9C935.7,344.9 906.8,347.2 888.8,363.2L883.6,360.9Z" style="fill:white;fill-rule:nonzero;"/>
        </g>
        <g transform="matrix(4.16667,0,0,4.16667,0,0)">
            <path d="M885.7,342.9L899.8,321.3L909.1,328L895.6,348.2C895.6,348.2 887,343.5 885.7,342.9Z" style="fill:white;fill-rule:nonzero;"/>
        </g>
        <g transform="matrix(4.16667,0,0,4.16667,0,0)">
            <path d="M868.6,333.8C868.6,333.8 892.3,324.6 913.6,331.1L921,336.1C921,336.1 894.9,334.2 880.2,341.6L868.6,333.8Z" style="fill:white;fill-rule:nonzero;"/>
        </g>
        <g transform="matrix(4.16667,0,0,4.16667,0,0)">
            <path d="M839.7,312.7C839.7,312.7 873.8,304 894.9,313.5C894.9,313.5 900.4,317.7 901.4,322.8C901.4,322.8 879.3,312.2 850,321.3L839.7,312.7Z" style="fill:white;fill-rule:nonzero;"/>
        </g>
        <g transform="matrix(4.16667,0,0,4.16667,0,0)">
            <path d="M818.5,294.5C818.5,294.5 847.9,282 871.5,294.5C871.5,294.5 877,297.5 879.6,303.7C879.6,303.7 857.2,290.9 827.4,302.7L818.5,294.5Z" style="fill:white;fill-rule:nonzero;"/>
        </g>
        <g transform="matrix(4.16667,0,0,4.16667,0,0)">
            <path d="M798.5,308C798.5,308 800.7,294.5 806.4,288.4L825.2,278.6C825.2,278.6 810.8,302.5 804.9,308L798.5,308Z" style="fill:white;fill-rule:nonzero;"/>
        </g>
        <g transform="matrix(4.16667,0,0,4.16667,0,0)">
            <path d="M831.8,277C831.8,277 854.5,282.1 859.2,287.1L857.7,284.5C857.7,284.5 856.1,280.8 855.5,280.4C855,280.1 845.7,271.6 831.8,277Z" style="fill:white;fill-rule:nonzero;"/>
        </g>
        <g transform="matrix(4.16667,0,0,4.16667,0,0)">
            <path d="M683.3,415.1L719.4,404.3C719.4,404.3 728.7,402.6 735.2,407.5C741.7,412.4 751.7,421.9 754.4,438.1C757.1,454.4 752.4,464.9 744.3,471.9L711.1,486.7C711.1,486.7 700.1,490.1 689.1,481.2C678.1,472.3 671.6,456.3 671.6,437.9C671.7,419.6 683.3,415.1 683.3,415.1Z" style="fill:rgb(58,173,173);fill-rule:nonzero;"/>
        </g>
        <g transform="matrix(4.16667,0,0,4.16667,0,0)">
            <path d="M683.8,437.3C683.8,437.3 687.2,424.4 697.3,427.6C707.4,430.8 714,449.6 714.6,459.9C715.2,470.3 708.7,474.7 700.2,472.4C691.8,470.1 681,454.4 683.8,437.3Z" style="fill:rgb(239,72,97);fill-rule:nonzero;"/>
        </g>
        <g transform="matrix(4.16667,0,0,4.16667,0,0)">
            <path d="M832.3,434.8C832.3,434.8 832.1,439.1 832.3,441.4C832.5,443.7 834.2,448.2 834.2,448.2L803.8,462.8C803.8,462.8 790.3,468.7 789.6,487.5C789,506.3 796.6,530.6 818.3,543.3C818.3,543.3 835.6,554.3 849.9,545.4C864.1,536.5 887.2,520.3 887.2,520.3C887.2,520.3 896.7,511 894.8,497.3C892.9,483.6 888,460.8 868,451.2C868,451.2 865.9,446.1 865.7,443C865.5,439.8 865.9,434.9 865.9,434.9C865.9,434.9 838.8,432.6 832.3,434.8Z" style="fill:rgb(58,173,173);fill-rule:nonzero;"/>
        </g>
        <g transform="matrix(4.16667,0,0,4.16667,0,0)">
            <path d="M809,479.8C809,479.8 814.3,473.3 826.3,475.4C838.3,477.5 849.3,495.7 852.3,507.7C855.3,519.7 848.5,530.7 836.2,531.8C823.9,532.9 812.5,519.8 806.4,507.7C800.4,495.6 806.4,481.9 809,479.8Z" style="fill:rgb(239,72,97);fill-rule:nonzero;"/>
        </g>
        <g transform="matrix(4.16667,0,0,4.16667,0,0)">
            <path d="M932.8,456.6C932.8,456.6 941.7,469.9 940.8,470.5C940,471.1 936.8,472.8 936.8,472.8C936.8,472.8 933.8,479.3 931.3,480.4C928.8,481.5 928.6,484 928.6,484L935.8,498.4C935.8,498.4 941.1,503 951.2,504.7C961.3,506.4 969.6,505.3 971.9,502.2C974.2,499 993.2,481.1 993.2,481.1C993.2,481.1 994.3,480.1 991.5,475C988.8,469.9 983.3,458.9 983.3,458.9C983.3,458.9 981,457.4 976.5,457.8C972.1,458.2 964.2,459.9 964.2,459.9L963.6,456.6C963.6,456.6 967.6,453.8 967.2,452.1C966.8,450.4 964.7,447.9 964.7,447.9L961,447.9L960.1,445.7L932.8,456.6Z" style="fill:rgb(58,173,173);fill-rule:nonzero;"/>
        </g>
        <g transform="matrix(4.16667,0,0,4.16667,0,0)">
            <path d="M994,404.8C994,404.8 994.9,388.8 991.6,378.2C963.8,416.8 818.7,400.2 766,367.7C727.2,343.7 719.9,286.2 720.3,254C717.2,255.4 714.1,258 711.7,262.3C703,278.1 698.7,327.4 699.3,339.2C699.9,351 703.8,356.1 703.8,356.1C703.8,356.1 703.2,362.3 704.1,367.4C704.9,372.5 706.4,376.7 706.4,376.7L715.1,381.2L724.4,398.1C724.4,398.1 737.1,392.9 741.3,395.9C745.5,398.9 754.8,412.2 756.8,412.7C758.8,413.3 771.2,417.8 771.2,417.8C771.2,417.8 780.2,417 781.9,415.8C783.6,414.7 784.7,413.5 784.7,413.5L822.4,425.9C822.4,425.9 832.5,439.4 837.6,440.3C842.7,441.1 858.2,440.3 858.2,440.3C858.2,440.3 868.9,431.6 872.8,431.6C876.7,431.6 890.3,448.2 893.4,448.8C896.5,449.4 911.7,456.1 915.4,457.8C919.1,459.5 929.2,462.3 932.6,460.1C936,457.8 965.6,445.2 967.8,442.1C970.1,439 970.6,432.2 970.6,432.2C970.6,432.2 986.9,429.1 992.3,424C997.7,418.9 996.5,408.2 994,404.8Z" style="fill-opacity:0.3;fill-rule:nonzero;"/>
        </g>
        <g transform="matrix(4.16667,0,0,4.16667,0,0)">
            <path d="M1222.1,239.8C1222.1,239.8 1212.4,248.3 1214.1,257.5C1215.8,266.7 1205.4,281.8 1205.4,281.8L1200.1,295.8C1200.1,295.8 1191,305.3 1176.2,303.4C1176.2,303.4 1171.6,303.4 1166.7,300.7C1161.8,298 1144.9,290.3 1144.9,290.3C1144.9,290.3 1131.7,279.9 1135.1,268.8C1138.5,257.6 1153.8,253.6 1153.8,253.6L1178.3,249.6L1209.8,234.8L1222.1,239.8Z" style="fill:rgb(160,117,125);fill-rule:nonzero;"/>
            <path d="M1089.2,279C1089.2,279 1072.3,268 1053.5,274.9C1034.7,281.8 1011.5,308.7 1010.8,310.2C1010.2,311.7 1011.4,325 1010.8,325.6C1010.2,326.2 1039.3,346.7 1039.3,346.7C1039.3,346.7 1049.9,351.6 1058.7,346.7C1067.6,341.8 1074.8,333.8 1075.4,332.1C1076,330.4 1095.9,290.7 1096.3,290.1C1096.8,289.5 1089.2,279 1089.2,279Z" style="fill:rgb(160,117,125);fill-rule:nonzero;"/>
            <path d="M1228.5,245.1C1228.5,245.1 1215.8,239.9 1211.6,242.9C1207.4,245.9 1198.1,259.2 1196.1,259.7C1194.1,260.3 1181.7,264.8 1181.7,264.8C1181.7,264.8 1172.7,264 1171,262.8C1169.3,261.7 1168.2,260.5 1168.2,260.5L1130.5,272.9C1130.5,272.9 1120.4,286.4 1115.3,287.3C1110.2,288.1 1094.7,287.3 1094.7,287.3C1094.7,287.3 1084,278.6 1080.1,278.6C1076.2,278.6 1062.6,295.2 1059.5,295.8C1056.4,296.4 1041.2,303.1 1037.5,304.8C1033.8,306.5 1023.7,309.3 1020.3,307.1C1016.9,304.8 987.3,292.2 985.1,289.1C982.8,286 982.3,279.2 982.3,279.2C982.3,279.2 966,276.1 960.6,271C955.2,265.9 956.4,255.2 958.9,251.8C958.9,251.8 957.5,226.5 964.8,218.3C972.1,210.1 991.8,205.6 1018.3,191.3C1044.8,176.9 1094.1,137.8 1095.2,131.6C1096.3,125.4 1098.6,120.6 1102.2,117.2C1105.9,113.8 1122.2,96.9 1122.2,96.9L1127,94.6L1132.1,94.6C1132.1,94.6 1138.6,84.2 1141.1,84.5C1143.6,84.8 1147.6,89 1147.6,89C1147.6,89 1164.8,78.6 1180,84.5C1195.2,90.4 1215.2,101.1 1215.2,101.1C1215.2,101.1 1232.4,93.5 1241.1,109.3C1249.8,125.1 1254.1,174.4 1253.5,186.2C1252.9,198 1249,203.1 1249,203.1C1249,203.1 1249.6,209.3 1248.7,214.4C1247.9,219.5 1246.4,223.7 1246.4,223.7L1237.7,228.2L1228.5,245.1Z" style="fill-rule:nonzero;"/>
            <path d="M960.6,271C955.2,265.9 956.4,255.2 958.9,251.8C971.6,268.7 1010.2,271 1080.9,264.2C1151.6,257.4 1173.3,241.7 1190.5,230.4C1207.7,219.1 1249.1,203.9 1249.1,203.9C1249.2,205.7 1249.4,210.4 1248.8,214.4C1248.4,217.1 1247.7,219.5 1247.3,221.3C1247.3,221.3 1220.1,235 1217.3,235C1214.5,235 1198.1,234.7 1197.9,233.9C1197.6,233.1 1190,250.5 1132,270C1117.3,274.9 1100.4,278 1083.4,279.7C1082.1,279.1 1081,278.7 1080.2,278.7C1079.4,278.7 1078.3,279.3 1077,280.3C1029.2,284.4 982.5,279.3 982.5,279.3C982.5,279.3 971.4,275.5 962.3,272.3C961.6,271.8 961.1,271.4 960.6,271Z" style="fill:rgb(58,173,173);fill-rule:nonzero;"/>
            <path d="M1095.9,128.7C1097.2,123.9 1099.2,120.1 1102.3,117.3C1106,113.9 1122.3,97 1122.3,97L1123.4,96.5C1123.4,96.5 1164.8,85 1208.5,140.4C1208.5,140.4 1207.7,177.6 1203.7,178.7C1199.8,179.8 1162,144.9 1141.2,131.9C1122.6,120.3 1103.7,121.9 1095.9,128.7Z" style="fill-rule:nonzero;"/>
            <path d="M1125.3,173.7L1131,170.7C1131,170.7 1119.5,136.1 1095.2,131.6C1095.2,131.6 1090.1,133.1 1089,139.1C1089,139.1 1103.4,136.3 1125.3,173.7Z" style="fill:white;fill-rule:nonzero;"/>
            <path d="M1105.2,193.8C1105.2,193.8 1096.1,158.3 1078.8,148.3C1078.8,148.3 1073,148.6 1071,154.7C1071,154.7 1093,182.1 1099.2,197.1L1105.2,193.8Z" style="fill:white;fill-rule:nonzero;"/>
            <path d="M1069.3,207.9C1069.3,207.9 1069.9,195.6 1046.9,187.4C1023.9,179.2 1021.6,184 1021.6,184C1021.6,184 1017,187.3 1017.2,191.9C1017.2,191.9 1046.1,194.2 1064.1,210.2L1069.3,207.9Z" style="fill:white;fill-rule:nonzero;"/>
            <path d="M1067.2,190L1053.1,168.4L1043.8,175.1L1057.3,195.3C1057.3,195.3 1066,190.6 1067.2,190Z" style="fill:white;fill-rule:nonzero;"/>
            <path d="M1084.3,180.9C1084.3,180.9 1060.6,171.7 1039.3,178.2L1031.9,183.2C1031.9,183.2 1058,181.3 1072.7,188.7L1084.3,180.9Z" style="fill:white;fill-rule:nonzero;"/>
            <path d="M1113.3,159.8C1113.3,159.8 1079.2,151.1 1058.1,160.6C1058.1,160.6 1052.6,164.8 1051.6,169.9C1051.6,169.9 1073.7,159.3 1103,168.4L1113.3,159.8Z" style="fill:white;fill-rule:nonzero;"/>
            <path d="M1134.4,141.6C1134.4,141.6 1105,129.1 1081.4,141.6C1081.4,141.6 1075.9,144.6 1073.3,150.8C1073.3,150.8 1095.7,138 1125.5,149.8L1134.4,141.6Z" style="fill:white;fill-rule:nonzero;"/>
            <path d="M1154.5,155.1C1154.5,155.1 1152.3,141.6 1146.6,135.5L1127.8,125.7C1127.8,125.7 1142.2,149.6 1148.1,155.1L1154.5,155.1Z" style="fill:white;fill-rule:nonzero;"/>
            <path d="M1121.1,124.1C1121.1,124.1 1098.4,129.2 1093.7,134.2L1095.2,131.6C1095.2,131.6 1096.8,127.9 1097.4,127.5C1098,127.2 1107.2,118.7 1121.1,124.1Z" style="fill:white;fill-rule:nonzero;"/>
            <path d="M1269.6,262.2L1233.5,251.4C1233.5,251.4 1224.2,249.7 1217.7,254.6C1211.2,259.5 1201.2,269 1198.5,285.2C1195.8,301.5 1200.5,312 1208.6,319L1241.8,333.8C1241.8,333.8 1252.8,337.2 1263.8,328.3C1274.8,319.4 1281.3,303.4 1281.3,285C1281.2,266.6 1269.6,262.2 1269.6,262.2Z" style="fill:rgb(58,173,173);fill-rule:nonzero;"/>
            <path d="M1269.2,284.4C1269.2,284.4 1265.8,271.5 1255.7,274.7C1245.6,277.9 1239,296.7 1238.4,307C1237.8,317.4 1244.3,321.8 1252.8,319.5C1261.2,317.1 1271.9,301.5 1269.2,284.4Z" style="fill:rgb(239,72,97);fill-rule:nonzero;"/>
            <path d="M1120.7,281.8C1120.7,281.8 1120.9,286.1 1120.7,288.4C1120.5,290.7 1118.8,295.2 1118.8,295.2L1149.2,309.8C1149.2,309.8 1162.7,315.7 1163.4,334.5C1164,353.3 1156.4,377.6 1134.7,390.3C1134.7,390.3 1117.4,401.3 1103.1,392.4C1088.9,383.5 1065.8,367.3 1065.8,367.3C1065.8,367.3 1056.3,358 1058.2,344.3C1060.1,330.6 1065,307.8 1085,298.2C1085,298.2 1087.1,293.1 1087.3,290C1087.5,286.8 1087.1,281.9 1087.1,281.9C1087.1,281.9 1114.1,279.7 1120.7,281.8Z" style="fill:rgb(58,173,173);fill-rule:nonzero;"/>
            <path d="M1143.9,326.9C1143.9,326.9 1138.6,320.4 1126.6,322.5C1114.6,324.6 1103.6,342.8 1100.6,354.8C1097.6,366.8 1104.4,377.8 1116.7,378.9C1129,380 1140.4,366.9 1146.5,354.8C1152.6,342.7 1146.5,329 1143.9,326.9Z" style="fill:rgb(239,72,97);fill-rule:nonzero;"/>
            <path d="M1020.1,303.7C1020.1,303.7 1011.2,317 1012.1,317.6C1012.9,318.2 1016.1,319.9 1016.1,319.9C1016.1,319.9 1019.1,326.4 1021.6,327.5C1024.1,328.6 1024.3,331.1 1024.3,331.1L1017.1,345.5C1017.1,345.5 1011.8,350.1 1001.7,351.8C991.6,353.5 983.3,352.4 981,349.3C978.7,346.1 959.7,328.2 959.7,328.2C959.7,328.2 958.6,327.2 961.4,322.1C964.1,317 969.6,306 969.6,306C969.6,306 971.9,304.5 976.4,304.9C980.8,305.3 988.7,307 988.7,307L989.3,303.7C989.3,303.7 985.3,300.9 985.7,299.2C986.1,297.5 988.2,295 988.2,295L991.9,295L992.8,292.8L1020.1,303.7Z" style="fill:rgb(58,173,173);fill-rule:nonzero;"/>
        </g>
        <g transform="matrix(4.16667,0,0,4.16667,0,0)">
            <path d="M958.9,251.9C958.9,251.9 958,235.9 961.3,225.3C989.1,263.9 1134.2,247.3 1186.9,214.8C1225.7,190.8 1233,133.3 1232.6,101.1C1235.7,102.5 1238.8,105.1 1241.2,109.4C1249.9,125.2 1254.2,174.5 1253.6,186.3C1253,198.1 1249.1,203.2 1249.1,203.2C1249.1,203.2 1249.7,209.4 1248.8,214.5C1248,219.6 1246.5,223.8 1246.5,223.8L1237.8,228.3L1228.5,245.2C1228.5,245.2 1215.8,240 1211.6,243C1207.4,246 1198.1,259.3 1196.1,259.8C1194.1,260.4 1181.7,264.9 1181.7,264.9C1181.7,264.9 1172.7,264.1 1171,262.9C1169.3,261.8 1168.2,260.6 1168.2,260.6L1130.5,273C1130.5,273 1120.4,286.5 1115.3,287.4C1110.2,288.2 1094.7,287.4 1094.7,287.4C1094.7,287.4 1084,278.7 1080.1,278.7C1076.2,278.7 1062.6,295.3 1059.5,295.9C1056.4,296.5 1041.2,303.2 1037.5,304.9C1033.8,306.6 1023.7,309.4 1020.3,307.2C1016.9,304.9 987.3,292.3 985.1,289.2C982.8,286.1 982.3,279.3 982.3,279.3C982.3,279.3 966,276.2 960.6,271.1C955.3,265.9 956.4,255.2 958.9,251.9Z" style="fill-opacity:0.3;fill-rule:nonzero;"/>
        </g>
    </g>
</svg>
